<svg width="256" height="256" viewBox="0 0 256 256" fill="none" xmlns="http://www.w3.org/2000/svg">
<rect width="256" height="256" rx="57" fill="#FFEC00"/>
<path d="M216.943 141.77C217.633 137.277 218 132.68 218 128C218 125.27 217.88 122.57 217.64 119.908C215.54 96.7475 196.985 77.27 156.268 77.27H132.665C127.01 77.27 102.283 76.88 102.283 66.3275C102.283 52.82 152.045 50.705 186.988 61.61L187.603 60.59C171.733 46.5425 150.868 38 128 38C112.918 38 98.6902 41.675 86.2252 48.2675C68.4052 57.695 57.6652 72.05 57.6652 85.1375C57.6652 110.128 79.4827 120.102 106.258 120.102C116.593 120.102 154.153 120.102 163.093 120.102C187.408 120.102 213.77 119.735 215.81 141.77H216.943Z" fill="#3C0F19"/>
<path d="M39.0575 114.23C38.3675 118.722 38 123.32 38 128C38 130.73 38.12 133.43 38.36 136.092C40.46 159.252 59.015 178.73 99.7325 178.73H123.335C128.99 178.73 153.717 179.12 153.717 189.672C153.717 203.18 103.955 205.295 69.0125 194.39L68.3975 195.41C84.2675 209.457 105.132 218 128 218C143.083 218 157.31 214.325 169.775 207.732C187.595 198.305 198.335 183.95 198.335 170.862C198.335 145.872 176.517 135.642 149.742 135.642C139.407 135.642 101.848 135.89 92.9075 135.89C68.5925 135.89 42.23 136.257 40.19 114.222H39.0575V114.23Z" fill="#3C0F19"/>
</svg>
